<?xml version="1.0" standalone="no"?>
<!DOCTYPE svg PUBLIC "-//W3C//DTD SVG 20010904//EN"
 "http://www.w3.org/TR/2001/REC-SVG-20010904/DTD/svg10.dtd">
<svg version="1.0" xmlns="http://www.w3.org/2000/svg"
 width="228.000000pt" height="228.000000pt" viewBox="0 0 228.000000 228.000000"
 preserveAspectRatio="xMidYMid meet">
<metadata>
Created by potrace 1.14, written by Peter Selinger 2001-2017
</metadata>
<g transform="translate(0.000000,228.000000) scale(0.100000,-0.100000)"
fill="#000000" stroke="none">
<path d="M662 1799 c-16 -35 -112 -235 -212 -444 -100 -209 -203 -423 -227
-475 -25 -52 -83 -173 -129 -269 -46 -95 -84 -179 -84 -185 0 -9 202 -12 819
-12 l819 0 -10 21 c-6 11 -51 80 -100 152 -48 73 -88 137 -88 142 0 5 -4 11
-8 13 -9 3 -112 153 -112 163 0 3 -5 11 -11 18 -22 24 -469 708 -469 716 0 5
-4 11 -8 13 -5 2 -37 46 -72 98 -34 52 -66 99 -71 104 -4 5 -21 -20 -37 -55z"/>
<path d="M1605 1515 c-22 -18 -44 -31 -50 -27 -5 3 -7 2 -3 -3 4 -4 -18 -27
-50 -51 -31 -23 -86 -65 -122 -93 -36 -28 -91 -70 -122 -94 -32 -23 -56 -47
-54 -52 7 -19 499 -760 512 -771 21 -17 560 -12 556 5 -1 7 -22 47 -46 89 -49
87 -95 171 -139 252 -16 30 -41 73 -55 95 -14 22 -25 41 -24 43 1 1 -4 12 -12
25 -7 12 -70 126 -140 252 -70 127 -131 237 -136 245 -6 8 -19 34 -31 57 -32
64 -39 66 -84 28z"/>
</g>
</svg>
